<svg width="14" height="15" viewBox="0 0 14 15" fill="none" xmlns="http://www.w3.org/2000/svg">
<path d="M7.00315 4.26572C5.01565 4.26572 3.41252 5.86885 3.41252 7.85635C3.41252 9.84385 5.01565 11.447 7.00315 11.447C8.99065 11.447 10.5938 9.84385 10.5938 7.85635C10.5938 5.86885 8.99065 4.26572 7.00315 4.26572ZM7.00315 10.1907C5.71877 10.1907 4.66877 9.14385 4.66877 7.85635C4.66877 6.56885 5.71565 5.52197 7.00315 5.52197C8.29065 5.52197 9.33752 6.56885 9.33752 7.85635C9.33752 9.14385 8.28752 10.1907 7.00315 10.1907ZM11.5781 4.11885C11.5781 4.58447 11.2031 4.95635 10.7407 4.95635C10.275 4.95635 9.90315 4.58135 9.90315 4.11885C9.90315 3.65635 10.2782 3.28135 10.7407 3.28135C11.2031 3.28135 11.5781 3.65635 11.5781 4.11885ZM13.9563 4.96885C13.9031 3.84697 13.6469 2.85322 12.825 2.03447C12.0063 1.21572 11.0125 0.959473 9.89065 0.903223C8.7344 0.837598 5.26877 0.837598 4.11252 0.903223C2.99377 0.956348 2.00002 1.2126 1.17815 2.03135C0.356274 2.8501 0.103149 3.84385 0.0468994 4.96572C-0.0187256 6.12197 -0.0187256 9.5876 0.0468994 10.7438C0.100024 11.8657 0.356274 12.8595 1.17815 13.6782C2.00002 14.497 2.99065 14.7532 4.11252 14.8095C5.26877 14.8751 8.7344 14.8751 9.89065 14.8095C11.0125 14.7563 12.0063 14.5001 12.825 13.6782C13.6438 12.8595 13.9 11.8657 13.9563 10.7438C14.0219 9.5876 14.0219 6.1251 13.9563 4.96885ZM12.4625 11.9845C12.2188 12.597 11.7469 13.0688 11.1313 13.3157C10.2094 13.6813 8.0219 13.597 7.00315 13.597C5.9844 13.597 3.79377 13.6782 2.87502 13.3157C2.26252 13.072 1.79065 12.6001 1.54377 11.9845C1.17815 11.0626 1.26252 8.8751 1.26252 7.85635C1.26252 6.8376 1.18127 4.64697 1.54377 3.72822C1.78752 3.11572 2.2594 2.64385 2.87502 2.39697C3.7969 2.03135 5.9844 2.11572 7.00315 2.11572C8.0219 2.11572 10.2125 2.03447 11.1313 2.39697C11.7438 2.64072 12.2156 3.1126 12.4625 3.72822C12.8281 4.6501 12.7438 6.8376 12.7438 7.85635C12.7438 8.8751 12.8281 11.0657 12.4625 11.9845Z" fill="#475467"/>
</svg>
