<svg width="14" height="15" viewBox="0 0 14 15" fill="none" xmlns="http://www.w3.org/2000/svg">
<path d="M13 0.859375H0.996875C0.446875 0.859375 0 1.3125 0 1.86875V13.85C0 14.4062 0.446875 14.8594 0.996875 14.8594H13C13.55 14.8594 14 14.4062 14 13.85V1.86875C14 1.3125 13.55 0.859375 13 0.859375ZM4.23125 12.8594H2.15625V6.17812H4.23438V12.8594H4.23125ZM3.19375 5.26562C2.52812 5.26562 1.99063 4.725 1.99063 4.0625C1.99063 3.4 2.52812 2.85938 3.19375 2.85938C3.85625 2.85938 4.39687 3.4 4.39687 4.0625C4.39687 4.72813 3.85938 5.26562 3.19375 5.26562ZM12.0094 12.8594H9.93437V9.60938C9.93437 8.83437 9.91875 7.8375 8.85625 7.8375C7.775 7.8375 7.60938 8.68125 7.60938 9.55313V12.8594H5.53438V6.17812H7.525V7.09062H7.55312C7.83125 6.56562 8.50938 6.0125 9.51875 6.0125C11.6187 6.0125 12.0094 7.39687 12.0094 9.19687V12.8594Z" fill="#475467"/>
</svg>
