<svg width="12" height="7" viewBox="0 0 12 7" fill="none" xmlns="http://www.w3.org/2000/svg">
<path d="M5.98666 0.386908C6.12 0.386908 6.245 0.407741 6.36166 0.449408C6.47833 0.491074 6.58666 0.561907 6.68666 0.661907L11.3117 5.28691C11.495 5.47024 11.5825 5.69941 11.5742 5.97441C11.5658 6.24941 11.47 6.47857 11.2867 6.66191C11.1033 6.84524 10.87 6.93691 10.5867 6.93691C10.3033 6.93691 10.07 6.84524 9.88666 6.66191L5.98666 2.76191L2.06166 6.68691C1.87833 6.87024 1.64916 6.95774 1.37416 6.94941C1.09916 6.94107 0.869997 6.84524 0.686664 6.66191C0.50333 6.47857 0.411664 6.24524 0.411664 5.96191C0.411664 5.67857 0.50333 5.44524 0.686664 5.26191L5.28666 0.661907C5.38666 0.561907 5.495 0.491074 5.61166 0.449408C5.72833 0.407741 5.85333 0.386908 5.98666 0.386908Z" fill="#475467"/>
</svg>
