<svg width="16" height="14" viewBox="0 0 16 14" fill="none" xmlns="http://www.w3.org/2000/svg">
<path d="M14.3553 3.60038C14.3655 3.7425 14.3655 3.88466 14.3655 4.02678C14.3655 8.36178 11.066 13.3567 5.03553 13.3567C3.17766 13.3567 1.45178 12.8186 0 11.8847C0.263969 11.9151 0.51775 11.9253 0.791875 11.9253C2.32484 11.9253 3.73603 11.4075 4.86294 10.5243C3.42131 10.4938 2.21319 9.54963 1.79694 8.25013C2 8.28057 2.20303 8.30088 2.41625 8.30088C2.71066 8.30088 3.00509 8.26025 3.27919 8.18922C1.77666 7.88463 0.649719 6.56485 0.649719 4.97094V4.93035C1.08625 5.174 1.59391 5.32628 2.13194 5.34657C1.24869 4.75772 0.670031 3.75266 0.670031 2.6156C0.670031 2.00647 0.832438 1.4481 1.11672 0.960785C2.73094 2.95063 5.15734 4.2501 7.87813 4.39225C7.82738 4.1486 7.79691 3.89482 7.79691 3.641C7.79691 1.83388 9.25884 0.361816 11.0761 0.361816C12.0203 0.361816 12.873 0.757754 13.472 1.39735C14.2131 1.25522 14.9238 0.981098 15.5533 0.605473C15.3096 1.36691 14.7918 2.0065 14.1116 2.41257C14.7715 2.34154 15.4111 2.15875 15.9999 1.90497C15.5533 2.55469 14.9949 3.13335 14.3553 3.60038Z" fill="#475467"/>
</svg>
